<?xml version="1.0" encoding="UTF-8"?>
<!DOCTYPE svg PUBLIC "-//W3C//DTD SVG 1.1//EN" "http://www.w3.org/Graphics/SVG/1.1/DTD/svg11.dtd">
<!-- Creator: CorelDRAW X6 -->
<svg xmlns="http://www.w3.org/2000/svg" xml:space="preserve" width="50px" height="80px" version="1.1" style="shape-rendering:geometricPrecision; text-rendering:geometricPrecision; image-rendering:optimizeQuality; fill-rule:evenodd; clip-rule:evenodd"
viewBox="0 0 50 80"
 xmlns:xlink="http://www.w3.org/1999/xlink">
 <defs>
  <style type="text/css">
   <![CDATA[
    .fil1 {fill:#E3E3E3}
    .fil0 {fill:#B2B3B3}
   ]]>
  </style>
 </defs>
 <g id="Layer_x0020_1">
  <metadata id="CorelCorpID_0Corel-Layer"/>
  <g id="_1339275312">
   <polygon class="fil0" points="40,57 35,59 47,75 50,72 "/>
   <polygon class="fil0" points="26,19 25,1 20,1 22,20 "/>
   <path class="fil0" d="M27 63l-15 -38 6 -4 -2 -20 -3 0 -13 11c0,0 -5,36 24,66l17 0 2 -2 -11 -16 -6 2z"/>
  </g>
  <polygon class="fil1" points="315,1492 -382,1492 -382,1485 315,1485 "/>
  <polygon class="fil1" points="315,1701 -382,1701 -382,1694 315,1694 "/>
 </g>
</svg>
