<?xml version="1.0" encoding="UTF-8"?>
<!DOCTYPE svg PUBLIC "-//W3C//DTD SVG 1.1//EN" "http://www.w3.org/Graphics/SVG/1.1/DTD/svg11.dtd">
<!-- Creator: CorelDRAW X6 -->
<svg xmlns="http://www.w3.org/2000/svg" xml:space="preserve" width="50px" height="50px" version="1.1" style="shape-rendering:geometricPrecision; text-rendering:geometricPrecision; image-rendering:optimizeQuality; fill-rule:evenodd; clip-rule:evenodd"
viewBox="0 0 50 50"
 xmlns:xlink="http://www.w3.org/1999/xlink">
 <defs>
  <style type="text/css">
   <![CDATA[
    .fil0 {fill:#C5C6C6}
   ]]>
  </style>
 </defs>
 <g id="Layer_x0020_1">
  <metadata id="CorelCorpID_0Corel-Layer"/>
  <g id="_184325520">
   <path class="fil0" d="M47 22l-45 0c-1,0 -3,1 -3,3 0,1 1,3 3,3l45 0c1,0 3,-1 3,-3 0,-1 -1,-3 -3,-3z"/>
   <path class="fil0" d="M47 34l-45 0c-1,0 -3,1 -3,3 0,1 1,3 3,3l45 0c1,0 3,-1 3,-3 0,-1 -1,-3 -3,-3z"/>
   <path class="fil0" d="M47 11l-45 0c-1,0 -3,1 -3,3 0,1 1,3 3,3l45 0c1,0 3,-1 3,-3 0,-1 -1,-3 -3,-3z"/>
  </g>
 </g>
</svg>
