<?xml version="1.0" encoding="UTF-8"?>
<!DOCTYPE svg PUBLIC "-//W3C//DTD SVG 1.1//EN" "http://www.w3.org/Graphics/SVG/1.1/DTD/svg11.dtd">
<!-- Creator: CorelDRAW X6 -->
<svg xmlns="http://www.w3.org/2000/svg" xml:space="preserve" width="50px" height="50px" version="1.1" style="shape-rendering:geometricPrecision; text-rendering:geometricPrecision; image-rendering:optimizeQuality; fill-rule:evenodd; clip-rule:evenodd"
viewBox="0 0 50 50"
 xmlns:xlink="http://www.w3.org/1999/xlink">
 <defs>
  <style type="text/css">
   <![CDATA[
    .fil0 {fill:#C5C6C6}
   ]]>
  </style>
 </defs>
 <g id="Layer_x0020_1">
  <metadata id="CorelCorpID_0Corel-Layer"/>
  <g id="_176609808">
   <path class="fil0" d="M12 19c1,0 3,1 3,3 0,1 -1,3 -3,3 -1,0 -3,-1 -3,-3 0,-1 1,-3 3,-3zm0 7c2,0 4,-2 4,-4 0,-2 -2,-4 -4,-4 -2,0 -4,2 -4,4 0,2 2,4 4,4z"/>
   <path class="fil0" d="M17 33l-10 0 0 -3 -1 0 1 0c0,-1 1,-3 3,-3l5 0c1,0 3,1 3,3l0 0 0 3 -1 0zm-3 -7l-5 0c-2,0 -4,2 -4,4l0 0 0 3c0,0 0,1 1,1l11 0c0,0 1,0 1,-1l0 -4 0 0c0,-2 -2,-4 -4,-4l0 1z"/>
   <path class="fil0" d="M47 37c0,2 -2,4 -4,4l-36 0c-2,0 -4,-2 -4,-4l0 -21c0,-2 2,-4 4,-4l36 0c2,0 4,2 4,4l0 21zm-4 -28l-36 0c-4,0 -7,3 -7,7l0 21c0,4 3,7 7,7l36 0c4,0 7,-3 7,-7l0 -21c0,-4 -3,-7 -7,-7z"/>
   <path class="fil0" d="M44 14l-16 0c0,0 -1,0 -1,1 0,0 0,1 1,1l16 0c0,0 1,0 1,-1 0,0 0,-1 -1,-1z"/>
   <path class="fil0" d="M44 18l-16 0c0,0 -1,0 -1,1 0,0 0,1 1,1l16 0c0,0 1,0 1,-1 0,0 0,-1 -1,-1z"/>
   <path class="fil0" d="M38 21l-10 0c0,0 -1,0 -1,1 0,0 0,1 1,1l10 0c0,0 1,0 1,-1 0,0 0,-1 -1,-1z"/>
  </g>
 </g>
</svg>
