<?xml version="1.0" encoding="UTF-8"?>
<!DOCTYPE svg PUBLIC "-//W3C//DTD SVG 1.1//EN" "http://www.w3.org/Graphics/SVG/1.1/DTD/svg11.dtd">
<!-- Creator: CorelDRAW X6 -->
<svg xmlns="http://www.w3.org/2000/svg" xml:space="preserve" width="50px" height="50px" version="1.1" style="shape-rendering:geometricPrecision; text-rendering:geometricPrecision; image-rendering:optimizeQuality; fill-rule:evenodd; clip-rule:evenodd"
viewBox="0 0 50 50"
 xmlns:xlink="http://www.w3.org/1999/xlink">
 <defs>
  <style type="text/css">
   <![CDATA[
    .fil0 {fill:#C5C6C6}
   ]]>
  </style>
 </defs>
 <g id="Layer_x0020_1">
  <metadata id="CorelCorpID_0Corel-Layer"/>
  <path class="fil0" d="M26 47c0,0 0,0 -1,0l0 0c0,0 0,0 0,0 0,0 -1,-1 -1,-1 0,-1 0,-2 0,-3l0 0 0 0c0,0 0,0 0,-1 0,-1 1,-1 1,-1l0 0 0 0c0,0 1,-1 1,-1 0,0 0,0 0,0 0,0 0,0 0,0l0 0c0,-1 0,-1 1,-1 0,0 0,0 0,0l1 -1c0,0 1,-1 1,-1l0 0c0,0 0,0 0,0 0,0 0,0 0,-1 0,0 0,-1 0,-1 0,0 0,-1 1,-1 0,-1 1,-2 1,-3l0 0c-1,-1 -2,-1 -3,-1 -1,0 -1,0 -2,-1 0,-1 -1,-2 -3,-2 0,0 0,0 -1,-1l0 0c0,0 0,-1 -1,-1 0,0 0,0 -1,0l0 0c0,0 -1,0 -1,0l0 0c0,0 0,0 -1,0 0,0 0,0 -1,0 -1,0 -1,1 -2,1 0,0 -1,0 -1,0 0,0 0,0 0,-1l0 0c0,0 0,0 0,-1 0,0 -1,0 -1,0 0,0 0,-1 0,-1 0,0 0,-1 0,-1 0,0 0,0 -1,0l-1 0c0,0 -1,0 -1,0 0,0 0,0 0,0l0 0c0,0 0,0 0,0 0,0 0,-1 0,-1 0,-1 1,-1 1,-1l0 0c0,0 1,0 2,0l0 0c0,0 0,0 0,0 0,1 1,2 1,2 0,0 1,0 1,0 0,-1 0,-2 0,-2 0,0 0,0 1,-1 1,0 1,-1 1,-2 0,0 0,0 1,-1 0,0 1,-1 1,-1 0,0 0,0 0,-1 0,0 0,-1 1,-1 0,0 1,0 1,-1 0,0 0,0 0,0l0 0c0,0 1,0 1,0 0,0 0,0 0,0l0 0 0 0 0 0c0,0 0,-1 1,-1 0,0 0,0 0,-1 0,0 0,-1 -1,-1 0,0 0,0 0,0 0,0 0,-1 0,-1l0 0 0 0 0 0 0 0c0,0 1,0 1,-1 0,0 0,0 0,-1 0,0 0,0 -1,0l0 0 0 0c0,0 0,-1 0,-1 0,0 0,0 -1,0l0 0c0,0 0,-1 -1,-1l0 0 -1 0c0,0 -1,0 -1,0l0 0c1,0 2,0 2,0 1,0 2,0 3,0l0 0c0,0 0,1 1,1 0,0 0,0 0,0 0,0 0,0 0,1 0,0 0,0 0,1 0,0 0,0 0,1 0,2 1,3 2,3l0 0 0 0c1,0 1,-1 1,-1 0,0 0,0 0,-1 1,0 1,0 2,-1 0,0 1,0 1,0l0 0c0,0 0,0 0,0l0 0c0,0 0,1 1,1l0 0 0 0 0 0c0,0 0,0 1,0 0,0 1,0 1,1 0,0 0,0 0,0l0 0 0 0c0,0 0,0 0,0l0 0 0 0c0,0 0,0 -1,0 0,0 0,0 0,1l0 0 0 0c0,0 0,0 0,1 0,0 0,1 0,1 0,0 0,0 1,0 0,0 0,0 0,0l0 0 0 0 0 0c0,0 0,1 1,1 -1,0 -1,0 -2,0 0,0 0,1 0,1 0,0 0,0 0,1 0,0 0,1 0,2 0,0 0,0 0,0 0,0 -1,1 -1,2 -1,1 -2,2 -2,3 0,0 0,0 0,1 0,0 0,1 0,1 0,0 0,0 0,1 0,1 0,1 0,2 0,0 0,0 0,0 0,0 1,1 1,1 1,1 1,1 2,2 0,0 0,0 1,0 1,0 1,0 2,0l0 0 0 0c0,0 1,0 1,0l0 0 0 0c0,0 1,0 1,0l0 0 0 0 0 0 0 0 0 0c0,0 0,1 0,1l0 0 0 0c0,0 0,1 0,1 0,0 0,0 0,1 0,0 0,1 0,1 0,0 0,0 0,1l0 0c0,0 0,1 0,1 0,0 0,1 0,1 0,0 0,0 0,0l0 0c0,0 0,0 0,1 0,0 0,0 0,1 0,0 0,0 0,0 -4,7 -12,12 -20,12l9 -5zm-9 -19c0,0 0,0 0,-1 0,-1 1,-1 1,-2 0,0 1,-1 1,-1 0,0 1,0 1,0l0 0c0,0 1,0 1,0 0,0 0,0 1,0 0,0 0,0 0,0 0,0 0,0 1,1 0,0 0,0 1,1 0,0 1,0 1,0 1,0 1,0 1,1 0,0 0,0 0,0 1,1 2,1 3,1 1,0 2,1 2,1 0,0 0,0 0,1 0,0 -1,1 -1,1 0,1 0,1 0,2l0 0c0,0 0,0 -1,1l0 0c-1,0 -1,2 -2,2l0 0c-1,0 -1,1 -2,1l0 0c0,0 -1,1 -1,2 0,0 0,0 0,1 0,0 0,0 0,1 0,1 0,2 0,3l0 0 0 0 0 0 0 0c0,0 0,0 0,0l0 0c0,0 0,-1 0,-1 0,0 0,-1 0,-1 0,0 0,0 0,0 0,0 0,-1 0,-1 0,0 0,-1 0,-2 0,0 0,0 0,-1 0,0 0,-1 0,-1 0,-2 0,-4 -2,-5 0,-1 -1,-2 -2,-3l0 0c0,0 0,-1 0,-1l-3 0zm-15 -4c0,-4 1,-8 3,-11l0 0c0,1 0,1 0,2 0,0 0,0 0,1 0,0 0,1 1,1 0,0 0,0 0,0 0,0 0,0 0,0 0,1 1,1 1,2 0,0 1,1 1,1l0 0 0 0c0,0 0,0 0,0 0,0 0,0 0,0l0 0c1,0 2,1 3,1 0,0 1,1 1,1 1,0 1,0 1,1 0,0 0,1 0,1 0,0 1,0 1,1 0,0 0,0 1,0l0 0 0 0c0,0 0,0 0,1 0,1 -1,1 -1,2l0 0c0,0 0,1 0,1 1,1 1,2 2,3 0,0 0,0 1,1 1,0 2,1 2,4 0,1 0,1 0,1 0,0 0,0 0,1 0,1 0,1 0,1 0,1 0,2 1,3 0,0 0,0 0,0l0 0c0,0 0,0 0,1l0 0c0,0 0,1 0,1 0,0 0,0 0,0 0,0 0,0 0,1 -11,-2 -19,-12 -19,-23l1 1zm19 -23l0 0 0 0 0 0 0 1 0 -1c0,0 0,0 0,0l0 0c0,0 -1,0 -1,0 0,0 0,0 0,0l0 0c0,0 0,0 0,0l0 0c1,0 2,-1 3,-1l0 0 -2 1zm1 2c0,0 -1,0 -1,0l0 0 0 0c0,0 1,0 1,-1l0 0 0 0 0 0 0 0 0 0c0,0 -1,1 -1,1l1 0zm-1 4l0 0c0,0 0,0 0,1 0,0 0,0 0,0l0 0 0 0c0,0 0,0 0,-1 0,0 0,0 0,0 0,0 -1,0 -1,0 0,0 1,0 1,-1 0,0 1,0 1,0l0 0 0 0 0 0 0 0 0 0 0 0 0 0c0,0 -1,1 -1,1l0 0zm1 3l0 0c-1,0 -1,1 -2,2 0,0 -1,1 -1,1 0,0 0,0 -1,1 0,0 0,1 0,1 0,0 0,0 -1,0 -1,0 -1,1 -1,1 0,0 -1,0 -2,0l0 0c0,0 0,0 -1,0l0 0c0,0 0,0 -1,0l0 0c-1,0 -2,1 -2,2 0,1 0,2 0,3 0,0 -1,0 -1,-1l0 0 0 0 0 0c0,-1 0,-1 -1,-2 0,-1 -1,-1 -1,-2 0,0 0,-1 0,-1 0,0 0,0 -1,0l0 0c0,0 0,0 0,-1 0,-1 0,-1 0,-2l0 0 0 0 0 0c0,-1 1,-1 1,-2 2,-2 4,-4 6,-5 0,0 0,0 0,0 0,0 1,0 1,0 0,0 0,0 0,-1l0 0 0 0 0 0c0,0 0,0 1,0 0,0 0,0 0,0l0 0 0 0 0 0c0,0 0,0 1,1 0,0 1,0 1,0 0,0 1,0 1,0l0 0 0 0c-1,0 -2,1 -3,2 0,0 0,1 0,1l0 0c0,0 1,1 1,1 0,0 0,1 1,1 0,0 0,0 0,0 0,0 0,0 1,0 0,0 1,0 1,0 0,0 1,-1 1,-1l0 0c0,0 1,-1 1,-1 0,0 0,0 0,-1 0,0 0,0 0,-1l0 0c0,0 0,0 0,0 0,0 0,0 0,0 0,0 0,0 0,0 0,0 0,0 1,0 0,0 0,0 1,0 0,0 0,1 0,1 0,0 0,0 0,0l0 0c0,0 0,0 -1,0 0,0 0,0 0,0l0 0 0 0c0,0 -1,0 -1,0 0,0 0,0 0,0 0,0 0,1 0,1l1 2zm19 3c0,0 0,1 0,1 0,0 0,0 0,0 0,0 0,0 -1,0l0 0 0 0c0,0 0,0 0,-1l0 0c0,0 0,0 1,0zm1 1l0 0c0,0 1,0 1,-1l0 0c0,0 0,0 0,1 0,0 -1,0 -1,0l0 0zm1 -2c0,0 -1,0 -1,0l0 0c0,0 0,-1 0,-1l0 0c0,0 0,0 0,0 0,0 1,1 1,1 0,0 0,0 0,0zm3 3c0,0 0,0 0,0l0 0 0 0c0,0 0,0 0,-1 0,0 0,0 0,0l0 0 0 0 0 0c0,0 0,1 1,1l-1 0zm-16 -11c0,0 1,0 1,-1 0,0 0,-1 0,-1l0 0 0 0c1,0 2,1 3,1 0,0 -1,0 -1,0l0 0c0,0 -1,1 -1,1 0,0 0,0 -1,1 0,0 0,0 0,-1l0 0 -1 0zm7 16l0 0c0,-1 1,-2 2,-2 0,0 1,-1 1,-1 0,0 0,0 0,-1 0,0 0,0 1,-1 1,0 2,0 2,0 1,0 1,0 1,0l0 0c0,0 0,1 0,1 0,0 0,0 1,0 0,0 1,0 1,1 0,0 0,0 1,0 1,2 1,5 1,7 0,2 0,5 -1,7l0 0c0,0 0,-1 0,-1 0,0 0,0 0,-1 0,0 0,-1 0,-1 0,-1 0,-1 0,-2l0 0c0,0 0,0 0,-1l0 0c0,0 0,0 0,0 0,0 -1,0 -1,-1 0,0 0,0 0,0 -1,0 -2,0 -2,0l0 0c0,0 -1,0 -1,0 0,0 -1,-1 -1,-1 0,0 -1,-1 -1,-1 0,0 0,-1 0,-1 0,-1 0,-1 0,-2l-4 1zm-12 -21c-14,0 -25,11 -25,25 0,14 11,25 25,25 14,0 25,-11 25,-25 0,-14 -11,-25 -25,-25z"/>
 </g>
</svg>
