<?xml version="1.0" encoding="UTF-8"?>
<!DOCTYPE svg PUBLIC "-//W3C//DTD SVG 1.1//EN" "http://www.w3.org/Graphics/SVG/1.1/DTD/svg11.dtd">
<!-- Creator: CorelDRAW X6 -->
<svg xmlns="http://www.w3.org/2000/svg" xml:space="preserve" width="50px" height="50px" version="1.1" style="shape-rendering:geometricPrecision; text-rendering:geometricPrecision; image-rendering:optimizeQuality; fill-rule:evenodd; clip-rule:evenodd"
viewBox="0 0 50 50"
 xmlns:xlink="http://www.w3.org/1999/xlink">
 <defs>
  <style type="text/css">
   <![CDATA[
    .fil0 {fill:#C5C6C6}
   ]]>
  </style>
 </defs>
 <g id="Layer_x0020_1">
  <metadata id="CorelCorpID_0Corel-Layer"/>
  <g id="_174795872">
   <path class="fil0" d="M33 18c0,0 0,-1 0,-1 0,0 -1,0 -1,0l-1 1 0 0c-2,-2 -6,-2 -8,0 -1,1 -1,3 -1,3 0,1 1,2 1,3l1 2c1,1 1,2 1,3 0,1 0,2 -1,2 -1,1 -2,1 -2,1 -1,0 -2,-1 -3,-2 -2,-2 -2,-3 -2,-5 0,-1 -1,-2 -2,-2 -1,0 -2,1 -2,2 0,3 1,4 3,6l-1 1c0,0 0,1 0,1 0,0 0,0 1,0 0,0 0,0 1,0l1 -1c1,1 3,2 4,2 0,0 1,0 1,0 2,0 3,-1 4,-2 1,-1 2,-3 2,-4 0,-1 -1,-3 -2,-4l-1 -2c0,-1 -1,-1 -1,-2 0,0 0,0 1,-1 1,-1 2,-1 4,0 1,1 2,3 2,4 0,1 1,1 2,1 1,0 1,-1 1,-2 0,-2 -1,-3 -2,-5l2 -2 -2 3z"/>
   <path class="fil0" d="M37 10c-1,0 -2,1 -2,2 0,1 1,2 2,2 1,0 2,-1 2,-2 0,-1 -1,-2 -2,-2z"/>
   <path class="fil0" d="M22 46l-19 -19 20 -20 19 0 0 19 -20 20zm27 -46c0,0 -1,0 -1,0l-4 4c0,0 0,0 0,0l-21 0c0,0 -1,0 -1,0l-22 22c0,0 0,1 0,1 0,0 0,1 0,1l22 22c0,0 1,0 1,0 0,0 1,0 1,0l22 -22c0,0 0,-1 0,-1l0 -21c0,0 0,0 0,0l4 -4c0,0 0,-1 0,-1l-1 -1z"/>
  </g>
 </g>
</svg>
